<svg width="486" height="599" viewBox="0 0 486 599" fill="none" xmlns="http://www.w3.org/2000/svg">
<path d="M240.823 571.263C240.823 574.138 237.484 576.438 233.274 576.438C228.484 576.869 225.145 574.569 225.145 571.263C225.145 568.388 228.484 566.087 232.694 566.087C237.048 565.656 240.823 567.956 240.823 571.263ZM195.677 564.794C194.661 567.669 197.565 570.975 201.919 571.837C205.694 573.275 210.048 571.837 210.919 568.962C211.79 566.087 209.032 562.781 204.677 561.487C200.903 560.481 196.694 561.919 195.677 564.794ZM259.839 562.35C255.629 563.356 252.726 566.088 253.161 569.394C253.597 572.269 257.371 574.138 261.726 573.131C265.935 572.125 268.839 569.394 268.403 566.519C267.968 563.788 264.048 561.919 259.839 562.35ZM355.355 11.5C154.016 11.5 0 162.869 0 362.25C0 521.669 101.323 658.088 246.048 706.1C264.629 709.406 271.161 698.05 271.161 688.706C271.161 679.794 270.726 630.631 270.726 600.444C270.726 600.444 169.113 622.006 147.774 557.606C147.774 557.606 131.226 515.775 107.419 504.994C107.419 504.994 74.1774 482.425 109.742 482.856C109.742 482.856 145.887 485.731 165.774 519.944C197.565 575.431 250.839 559.475 271.597 549.987C274.936 526.987 284.371 511.031 294.823 501.544C213.677 492.631 131.806 480.987 131.806 342.7C131.806 303.169 142.839 283.331 166.065 258.031C162.29 248.688 149.952 210.162 169.839 160.425C200.177 151.081 270 199.238 270 199.238C299.032 191.188 330.242 187.019 361.161 187.019C392.081 187.019 423.29 191.188 452.323 199.238C452.323 199.238 522.145 150.938 552.484 160.425C572.371 210.306 560.032 248.688 556.258 258.031C579.484 283.475 593.71 303.312 593.71 342.7C593.71 481.419 508.21 492.487 427.065 501.544C440.419 512.9 451.742 534.462 451.742 568.244C451.742 616.688 451.306 676.631 451.306 688.419C451.306 697.763 457.984 709.119 476.419 705.812C621.581 658.088 720 521.669 720 362.25C720 162.869 556.694 11.5 355.355 11.5ZM141.097 507.294C139.21 508.731 139.645 512.038 142.113 514.769C144.435 517.069 147.774 518.075 149.661 516.206C151.548 514.769 151.113 511.462 148.645 508.731C146.323 506.431 142.984 505.425 141.097 507.294ZM125.419 495.65C124.403 497.519 125.855 499.819 128.758 501.256C131.081 502.694 133.984 502.263 135 500.25C136.016 498.381 134.565 496.081 131.661 494.644C128.758 493.781 126.435 494.212 125.419 495.65ZM172.452 546.825C170.129 548.694 171 553.006 174.339 555.737C177.677 559.044 181.887 559.475 183.774 557.175C185.661 555.306 184.79 550.994 181.887 548.263C178.694 544.956 174.339 544.525 172.452 546.825ZM155.903 525.694C153.581 527.131 153.581 530.869 155.903 534.175C158.226 537.481 162.145 538.919 164.032 537.481C166.355 535.612 166.355 531.875 164.032 528.569C162 525.263 158.226 523.825 155.903 525.694Z" fill="url(#paint0_linear_32899_5)"/>
<defs>
<linearGradient id="paint0_linear_32899_5" x1="360" y1="11.5" x2="360" y2="706.686" gradientUnits="userSpaceOnUse">
<stop stop-color="#1F2729"/>
<stop offset="0.697917" stop-color="#1F2729" stop-opacity="0.0260417"/>
<stop offset="1" stop-color="#1F2729" stop-opacity="0"/>
</linearGradient>
</defs>
</svg>
